<svg width="10" height="10" viewBox="0 0 10 10" fill="none" xmlns="http://www.w3.org/2000/svg">
<path fill-rule="evenodd" clip-rule="evenodd" d="M0.333822 8.72425C0.0734885 8.98465 0.0735286 9.40671 0.333902 9.66705C0.594275 9.92738 1.01638 9.92738 1.27671 9.66698L5.0002 5.94285L8.724 9.66665C8.98434 9.92698 9.40647 9.92698 9.6668 9.66665C9.92714 9.40631 9.92714 8.98418 9.6668 8.72385L5.94294 4.99998L9.66654 1.27573C9.9268 1.01535 9.9268 0.593247 9.6664 0.33292C9.40607 0.0725871 8.98394 0.0726269 8.7236 0.333L5.00007 4.05718L1.27626 0.33332C1.01591 0.0729737 0.593795 0.0729737 0.333449 0.33332C0.0730953 0.593674 0.0730953 1.01578 0.333449 1.27613L4.0574 5.00005L0.333822 8.72425Z" fill="black"/>
</svg>
