<svg width="73" height="12" viewBox="0 0 73 12" fill="none" xmlns="http://www.w3.org/2000/svg">
<path d="M0.819 6.437C0.819 4.019 2.613 2.056 5.148 2.056C7.683 2.056 9.477 4.019 9.477 6.437C9.477 8.855 7.683 10.818 5.148 10.818C2.613 10.818 0.819 8.855 0.819 6.437ZM0.494 6.437C0.494 9.024 2.431 11.13 5.148 11.13C7.865 11.13 9.802 9.024 9.802 6.437C9.802 3.85 7.865 1.744 5.148 1.744C2.431 1.744 0.494 3.85 0.494 6.437ZM5.369 8.764C4.381 8.764 3.796 7.763 3.796 6.32C3.796 5.15 4.329 4.058 5.395 4.058C6.162 4.058 6.565 4.63 6.747 5.462H7.046V4.201C6.682 3.902 6.149 3.668 5.369 3.668C3.887 3.668 2.652 4.747 2.652 6.528C2.652 8.049 3.692 9.154 5.33 9.154C6.071 9.154 6.578 8.946 7.072 8.686L7.189 7.269H6.877C6.578 8.192 6.227 8.764 5.369 8.764ZM14.5358 9.687C16.2908 7.997 18.9038 6.125 18.9038 4.084C18.9038 2.641 17.9548 1.744 16.3688 1.744C14.7568 1.744 13.8468 2.797 13.2878 3.85L13.5478 4.032C14.0418 3.395 14.7308 2.888 15.6798 2.888C16.7848 2.888 17.3828 3.577 17.3828 4.643C17.3828 5.852 16.8758 6.723 15.3028 8.322L12.9758 10.688V11H18.8518L19.3328 8.348H18.9818C18.3448 9.583 17.9678 9.687 16.9278 9.687H14.5358ZM23.6817 10.714C22.1477 10.714 21.7707 8.53 21.7707 6.437C21.7707 4.344 22.1477 2.16 23.6817 2.16C25.2157 2.16 25.6057 4.344 25.6057 6.437C25.6057 8.53 25.2157 10.714 23.6817 10.714ZM23.6817 11.13C25.9177 11.13 27.2827 9.141 27.2827 6.437C27.2827 3.733 25.9177 1.744 23.6817 1.744C21.4457 1.744 20.0807 3.733 20.0807 6.437C20.0807 9.141 21.4457 11.13 23.6817 11.13ZM29.0847 9.687C30.8397 7.997 33.4527 6.125 33.4527 4.084C33.4527 2.641 32.5037 1.744 30.9177 1.744C29.3057 1.744 28.3957 2.797 27.8367 3.85L28.0967 4.032C28.5907 3.395 29.2797 2.888 30.2287 2.888C31.3337 2.888 31.9317 3.577 31.9317 4.643C31.9317 5.852 31.4247 6.723 29.8517 8.322L27.5247 10.688V11H33.4007L33.8817 8.348H33.5307C32.8937 9.583 32.5167 9.687 31.4767 9.687H29.0847ZM37.8523 5.774C38.7623 5.566 39.9583 4.955 39.9583 3.694C39.9583 2.498 39.0873 1.744 37.7483 1.744C36.3703 1.744 35.4733 2.498 34.9663 3.577L35.2003 3.772C35.6683 3.161 36.2663 2.771 37.0853 2.771C38.0343 2.771 38.5153 3.343 38.5153 4.149C38.5153 5.319 37.4883 5.813 36.0713 6.255L36.1623 6.567H36.5653C38.0343 6.567 39.0613 7.334 39.0613 8.738C39.0613 9.856 38.4633 10.714 37.3713 10.714C36.3573 10.714 35.7593 10.025 35.7593 9.037C35.7593 8.738 35.7853 8.53 35.8503 8.335H34.9273C34.6153 8.478 34.3423 8.816 34.3423 9.284C34.3423 10.246 35.4083 11.13 37.3583 11.13C39.0873 11.13 40.5303 10.116 40.5303 8.296C40.5303 6.97 39.4513 5.917 37.8523 5.774ZM48.3174 1.744C45.7954 1.744 43.8844 3.655 43.8844 6.645C43.8844 9.31 45.6134 11.13 48.3694 11.13C49.5654 11.13 50.5014 10.857 51.2684 10.389L51.4504 8.023H50.9954C50.5794 9.882 49.7474 10.636 48.4474 10.636C46.5624 10.636 45.5354 8.712 45.5354 6.281C45.5354 4.058 46.4454 2.225 48.3304 2.225C49.6304 2.225 50.4494 3.005 50.7484 4.5H51.1644L51.1514 2.511C50.4104 2.03 49.4484 1.744 48.3174 1.744ZM58.2694 5.501L58.3214 4.071H58.1134L55.9684 4.487V4.838L56.1634 4.864C56.7354 4.955 56.8264 5.111 56.8264 5.566V9.596C56.3584 9.934 55.9034 10.22 55.2924 10.22C54.5254 10.22 54.2004 9.713 54.2004 8.829V5.553L54.2654 4.071H54.0574L51.8864 4.487V4.838L52.0944 4.864C52.6534 4.955 52.7574 5.111 52.7574 5.566V9.063C52.7574 10.506 53.4464 11.13 54.5774 11.13C55.5394 11.13 56.2284 10.519 56.8264 9.895L56.7744 11.13H57.0344L59.1794 10.662V10.324L58.8414 10.298C58.2954 10.246 58.2694 10.129 58.2694 9.687V5.501ZM60.1442 2.095V10.207C60.8202 10.792 61.8342 11.13 62.9522 11.13C64.8372 11.13 66.3582 9.661 66.3582 7.191C66.3582 5.254 65.3962 4.058 63.7842 4.058C62.7702 4.058 62.0682 4.565 61.6002 5.241V0.820999H61.3792L59.3252 1.458V1.653L60.1442 2.095ZM62.9522 10.714C62.0812 10.714 61.6002 10.233 61.6002 9.141V5.553C61.9252 5.202 62.4452 4.955 62.9652 4.955C64.3302 4.955 64.8892 6.242 64.8892 7.763C64.8892 9.414 64.1482 10.714 62.9522 10.714ZM70.2078 4.058C68.4788 4.058 67.1528 5.605 67.1528 7.776C67.1528 9.687 68.2968 11.13 70.1688 11.13C71.5858 11.13 72.5088 10.285 72.8208 9.076L72.6518 8.985C72.1838 9.687 71.6118 10.09 70.7018 10.09C69.3888 10.09 68.3878 8.959 68.4658 6.97H72.7428V6.697C72.7428 5.189 71.8718 4.058 70.2078 4.058ZM70.0908 4.5C71.0268 4.5 71.3908 5.358 71.3908 6.554H68.5048C68.6088 5.384 69.1548 4.5 70.0908 4.5Z" fill="white" fill-opacity="0.72"/>
</svg>
