<svg width="90" height="14" viewBox="0 0 90 14" fill="none" xmlns="http://www.w3.org/2000/svg">
<path d="M1.008 7.384C1.008 4.408 3.216 1.992 6.336 1.992C9.456 1.992 11.664 4.408 11.664 7.384C11.664 10.36 9.456 12.776 6.336 12.776C3.216 12.776 1.008 10.36 1.008 7.384ZM0.608 7.384C0.608 10.568 2.992 13.16 6.336 13.16C9.68 13.16 12.064 10.568 12.064 7.384C12.064 4.2 9.68 1.608 6.336 1.608C2.992 1.608 0.608 4.2 0.608 7.384ZM6.608 10.248C5.392 10.248 4.672 9.016 4.672 7.24C4.672 5.8 5.328 4.456 6.64 4.456C7.584 4.456 8.08 5.16 8.304 6.184H8.672V4.632C8.224 4.264 7.568 3.976 6.608 3.976C4.784 3.976 3.264 5.304 3.264 7.496C3.264 9.368 4.544 10.728 6.56 10.728C7.472 10.728 8.096 10.472 8.704 10.152L8.848 8.408H8.464C8.096 9.544 7.664 10.248 6.608 10.248ZM17.8903 11.384C20.0503 9.304 23.2663 7 23.2663 4.488C23.2663 2.712 22.0983 1.608 20.1463 1.608C18.1623 1.608 17.0423 2.904 16.3543 4.2L16.6743 4.424C17.2823 3.64 18.1303 3.016 19.2983 3.016C20.6583 3.016 21.3943 3.864 21.3943 5.176C21.3943 6.664 20.7703 7.736 18.8343 9.704L15.9703 12.616V13H23.2023L23.7943 9.736H23.3623C22.5783 11.256 22.1143 11.384 20.8343 11.384H17.8903ZM29.1468 12.648C27.2588 12.648 26.7948 9.96 26.7948 7.384C26.7948 4.808 27.2588 2.12 29.1468 2.12C31.0348 2.12 31.5148 4.808 31.5148 7.384C31.5148 9.96 31.0348 12.648 29.1468 12.648ZM29.1468 13.16C31.8988 13.16 33.5788 10.712 33.5788 7.384C33.5788 4.056 31.8988 1.608 29.1468 1.608C26.3948 1.608 24.7148 4.056 24.7148 7.384C24.7148 10.712 26.3948 13.16 29.1468 13.16ZM35.7965 11.384C37.9565 9.304 41.1725 7 41.1725 4.488C41.1725 2.712 40.0045 1.608 38.0525 1.608C36.0685 1.608 34.9485 2.904 34.2605 4.2L34.5805 4.424C35.1885 3.64 36.0365 3.016 37.2045 3.016C38.5645 3.016 39.3005 3.864 39.3005 5.176C39.3005 6.664 38.6765 7.736 36.7405 9.704L33.8765 12.616V13H41.1085L41.7005 9.736H41.2685C40.4845 11.256 40.0205 11.384 38.7405 11.384H35.7965ZM46.5875 6.568C47.7075 6.312 49.1795 5.56 49.1795 4.008C49.1795 2.536 48.1075 1.608 46.4595 1.608C44.7635 1.608 43.6595 2.536 43.0355 3.864L43.3235 4.104C43.8995 3.352 44.6355 2.872 45.6435 2.872C46.8115 2.872 47.4035 3.576 47.4035 4.568C47.4035 6.008 46.1395 6.616 44.3955 7.16L44.5075 7.544H45.0035C46.8115 7.544 48.0755 8.488 48.0755 10.216C48.0755 11.592 47.3395 12.648 45.9955 12.648C44.7475 12.648 44.0115 11.8 44.0115 10.584C44.0115 10.216 44.0435 9.96 44.1235 9.72H42.9875C42.6035 9.896 42.2675 10.312 42.2675 10.888C42.2675 12.072 43.5795 13.16 45.9795 13.16C48.1075 13.16 49.8835 11.912 49.8835 9.672C49.8835 8.04 48.5555 6.744 46.5875 6.568ZM59.4676 1.608C56.3636 1.608 54.0116 3.96 54.0116 7.64C54.0116 10.92 56.1396 13.16 59.5316 13.16C61.0036 13.16 62.1556 12.824 63.0996 12.248L63.3236 9.336H62.7636C62.2516 11.624 61.2276 12.552 59.6276 12.552C57.3076 12.552 56.0436 10.184 56.0436 7.192C56.0436 4.456 57.1636 2.2 59.4836 2.2C61.0836 2.2 62.0916 3.16 62.4596 5H62.9716L62.9556 2.552C62.0436 1.96 60.8596 1.608 59.4676 1.608ZM71.7161 6.232L71.7801 4.472H71.5241L68.8841 4.984V5.416L69.1241 5.448C69.8281 5.56 69.9401 5.752 69.9401 6.312V11.272C69.3641 11.688 68.8041 12.04 68.0521 12.04C67.1081 12.04 66.7081 11.416 66.7081 10.328V6.296L66.7881 4.472H66.5321L63.8601 4.984V5.416L64.1161 5.448C64.8041 5.56 64.9321 5.752 64.9321 6.312V10.616C64.9321 12.392 65.7801 13.16 67.1721 13.16C68.3561 13.16 69.2041 12.408 69.9401 11.64L69.8761 13.16H70.1961L72.8361 12.584V12.168L72.4201 12.136C71.7481 12.072 71.7161 11.928 71.7161 11.384V6.232ZM74.0236 2.04V12.024C74.8556 12.744 76.1036 13.16 77.4796 13.16C79.7996 13.16 81.6716 11.352 81.6716 8.312C81.6716 5.928 80.4876 4.456 78.5036 4.456C77.2556 4.456 76.3916 5.08 75.8156 5.912V0.471999H75.5436L73.0156 1.256V1.496L74.0236 2.04ZM77.4796 12.648C76.4076 12.648 75.8156 12.056 75.8156 10.712V6.296C76.2156 5.864 76.8556 5.56 77.4956 5.56C79.1756 5.56 79.8636 7.144 79.8636 9.016C79.8636 11.048 78.9516 12.648 77.4796 12.648ZM86.4096 4.456C84.2816 4.456 82.6496 6.36 82.6496 9.032C82.6496 11.384 84.0576 13.16 86.3616 13.16C88.1056 13.16 89.2416 12.12 89.6256 10.632L89.4176 10.52C88.8416 11.384 88.1376 11.88 87.0176 11.88C85.4016 11.88 84.1696 10.488 84.2656 8.04H89.5296V7.704C89.5296 5.848 88.4576 4.456 86.4096 4.456ZM86.2656 5C87.4176 5 87.8656 6.056 87.8656 7.528H84.3136C84.4416 6.088 85.1136 5 86.2656 5Z" fill="black" fill-opacity="0.72"/>
</svg>
