<svg width="108" height="40" viewBox="0 0 108 40" fill="none" xmlns="http://www.w3.org/2000/svg">
<path d="M34.182 23.2C37.194 23.2 39.15 26.4121 37.73 29.0641C34.382 35.3041 27.682 39.4801 20.038 39.1841C10.09 38.8001 1.98596 30.688 1.61396 20.736C1.20196 9.80005 9.94995 0.800049 20.798 0.800049C28.094 0.800049 34.442 4.87205 37.69 10.868C39.138 13.544 37.226 16.8 34.182 16.8C32.73 16.8 31.37 16.028 30.69 14.748C28.638 10.896 24.398 8.37605 19.642 8.85605C14.258 9.40005 9.98595 13.8361 9.62595 19.232C9.18995 25.7561 14.37 31.2 20.798 31.2C25.058 31.2 28.774 28.8081 30.662 25.2961C31.358 24.0041 32.71 23.2 34.182 23.2Z" fill="white"/>
<path d="M20.7979 26.4001C24.3326 26.4001 27.1979 23.5347 27.1979 20.0001C27.1979 16.4655 24.3326 13.6001 20.7979 13.6001C17.2633 13.6001 14.3979 16.4655 14.3979 20.0001C14.3979 23.5347 17.2633 26.4001 20.7979 26.4001Z" fill="white"/>
<path d="M56.928 9.912C52.272 9.912 48.744 13.44 48.744 18.96C48.744 23.88 51.936 27.24 57.024 27.24C59.232 27.24 60.96 26.736 62.376 25.872L62.712 21.504H61.872C61.104 24.936 59.568 26.328 57.168 26.328C53.688 26.328 51.792 22.776 51.792 18.288C51.792 14.184 53.472 10.8 56.952 10.8C59.352 10.8 60.864 12.24 61.416 15H62.184L62.16 11.328C60.792 10.44 59.016 9.912 56.928 9.912ZM75.3008 16.848L75.3968 14.208H75.0128L71.0528 14.976V15.624L71.4128 15.672C72.4688 15.84 72.6368 16.128 72.6368 16.968V24.408C71.7728 25.032 70.9328 25.56 69.8047 25.56C68.3888 25.56 67.7888 24.624 67.7888 22.992V16.944L67.9088 14.208H67.5248L63.5168 14.976V15.624L63.9008 15.672C64.9328 15.84 65.1248 16.128 65.1248 16.968V23.424C65.1248 26.088 66.3968 27.24 68.4848 27.24C70.2608 27.24 71.5328 26.112 72.6368 24.96L72.5408 27.24H73.0208L76.9808 26.376V25.752L76.3568 25.704C75.3488 25.608 75.3008 25.392 75.3008 24.576V16.848ZM78.762 10.56V25.536C80.01 26.616 81.882 27.24 83.946 27.24C87.426 27.24 90.234 24.528 90.234 19.968C90.234 16.392 88.458 14.184 85.482 14.184C83.61 14.184 82.314 15.12 81.45 16.368V8.208H81.042L77.25 9.384V9.744L78.762 10.56ZM83.946 26.472C82.338 26.472 81.45 25.584 81.45 23.568V16.944C82.05 16.296 83.01 15.84 83.97 15.84C86.49 15.84 87.522 18.216 87.522 21.024C87.522 24.072 86.154 26.472 83.946 26.472ZM97.341 14.184C94.149 14.184 91.701 17.04 91.701 21.048C91.701 24.576 93.813 27.24 97.269 27.24C99.885 27.24 101.589 25.68 102.165 23.448L101.853 23.28C100.989 24.576 99.933 25.32 98.253 25.32C95.829 25.32 93.981 23.232 94.125 19.56H102.021V19.056C102.021 16.272 100.413 14.184 97.341 14.184ZM97.125 15C98.853 15 99.525 16.584 99.525 18.792H94.197C94.389 16.632 95.397 15 97.125 15Z" fill="white"/>
</svg>
