<svg width="24" height="24" viewBox="0 0 24 24" fill="none" xmlns="http://www.w3.org/2000/svg">
<g clip-path="url(#clip0_3386_17266)">
<path fill-rule="evenodd" clip-rule="evenodd" d="M16.102 2C16.4292 4.81382 17.9311 6.55404 20.5335 6.89666C20.7948 6.93105 21.0002 7.14719 21.0002 7.41067V9.8382C21.0002 10.0955 20.8048 10.3133 20.5475 10.3189C19.3081 10.3461 18.1639 9.97901 16.9224 9.31534C16.5789 9.13172 16.1523 9.37265 16.1523 9.76214V15.1396C16.1523 23.0976 7.47657 25.5845 3.98864 19.8804C1.80243 16.3002 3.05447 10.0843 9.78968 9.54116C10.0719 9.51839 10.3097 9.74611 10.3097 10.0293V12.617C10.3097 12.8625 10.1313 13.0705 9.89062 13.119C9.47061 13.2036 9.04185 13.3156 8.64131 13.4523C7.04215 13.9937 6.13554 15.0073 6.38738 16.7954C6.87217 20.2204 13.1555 21.234 12.6329 14.5414V2.5063C12.6329 2.23015 12.8568 2.0063 13.1329 2.0063H16.0957C16.0991 2.0063 16.102 2.00348 16.102 2Z" fill="black"/>
</g>
<defs>
<clipPath id="clip0_3386_17266">
<rect width="18" height="20.9843" fill="white" transform="translate(3 2)"/>
</clipPath>
</defs>
</svg>
