<svg width="22" height="24" viewBox="0 0 22 24" fill="none" xmlns="http://www.w3.org/2000/svg">
<g opacity="0.64">
<path d="M21.5152 6.01825C20.1455 6.01825 18.8818 5.5645 17.8669 4.79903C16.703 3.92153 15.8668 2.63434 15.5715 1.15075C15.4983 0.784187 15.459 0.405906 15.4552 0.0182495H11.5425V10.7095L11.5379 16.5656C11.5379 18.1312 10.5183 19.4587 9.10505 19.9256C8.69489 20.0611 8.25192 20.1253 7.79067 20.1C7.20192 20.0676 6.6502 19.89 6.17067 19.6031C5.1502 18.9928 4.45833 17.8856 4.43958 16.619C4.41005 14.6395 6.01036 13.0256 7.98849 13.0256C8.37895 13.0256 8.75395 13.0893 9.10505 13.2051V10.2829V9.23247C8.73474 9.17762 8.35786 9.14903 7.97677 9.14903C5.81161 9.14903 3.78661 10.049 2.33911 11.6704C1.24505 12.8958 0.588799 14.459 0.487549 16.0982C0.354893 18.2517 1.14286 20.2987 2.67099 21.809C2.89552 22.0307 3.1313 22.2365 3.37786 22.4264C4.68802 23.4347 6.28974 23.9812 7.97677 23.9812C8.35786 23.9812 8.73474 23.9531 9.10505 23.8982C10.681 23.6648 12.135 22.9434 13.2825 21.809C14.6925 20.4154 15.4716 18.5653 15.48 16.5961L15.4599 7.85106C16.1325 8.36997 16.868 8.79934 17.6574 9.13262C18.885 9.65059 20.1868 9.91309 21.5265 9.91262V7.07153V6.01731C21.5274 6.01825 21.5161 6.01825 21.5152 6.01825Z" fill="white"/>
</g>
</svg>
