<svg width="24" height="24" viewBox="0 0 24 24" fill="none" xmlns="http://www.w3.org/2000/svg">
<g opacity="0.64" clip-path="url(#clip0_173_28999)">
<path d="M23.5055 6.22803C23.229 5.19986 22.4183 4.38936 21.3903 4.1125C19.5122 3.59863 11.9997 3.59863 11.9997 3.59863C11.9997 3.59863 4.48756 3.59863 2.60948 4.09302C1.60122 4.36958 0.770802 5.2 0.494239 6.22803C0 8.10597 0 12.0005 0 12.0005C0 12.0005 0 15.9148 0.494239 17.7731C0.771095 18.8011 1.58145 19.6116 2.60962 19.8885C4.50733 20.4025 12 20.4025 12 20.4025C12 20.4025 19.5122 20.4025 21.3903 19.9081C22.4185 19.6314 23.229 18.8209 23.5058 17.7929C23.9999 15.9148 23.9999 12.0203 23.9999 12.0203C23.9999 12.0203 24.0197 8.10597 23.5055 6.22803ZM9.60793 15.5985V8.4026L15.8549 12.0005L9.60793 15.5985Z" fill="white"/>
</g>
<defs>
<clipPath id="clip0_173_28999">
<rect width="24" height="18" fill="white" transform="translate(0 3)"/>
</clipPath>
</defs>
</svg>
