<svg width="19" height="17" viewBox="0 0 19 17" fill="none" xmlns="http://www.w3.org/2000/svg">
<path fill-rule="evenodd" clip-rule="evenodd" d="M12.9707 2.789C11.8937 3.61399 11.0009 4.88823 10.5168 5.99297C10.3186 6.44529 9.67373 6.44529 9.47561 5.99297C8.99149 4.88833 8.09874 3.61399 7.02164 2.789C5.94909 1.96748 4.77867 1.64453 3.635 2.21642C2.65686 2.70549 2.13401 3.46986 1.97719 4.41422C1.81651 5.38166 2.03643 6.57397 2.63913 7.87575C3.82322 10.4332 6.42093 13.2694 9.99638 15.3372C13.5705 13.2697 16.1587 10.4291 17.3382 7.86921C17.9386 6.56604 18.1577 5.37244 17.9985 4.4052C17.8432 3.46084 17.3244 2.69984 16.3575 2.21642C15.2137 1.64444 14.0433 1.96738 12.9707 2.789ZM12.3999 2.04376C13.6302 1.10148 15.1904 0.583281 16.7772 1.37677C18.0173 1.9969 18.7213 3.01585 18.9249 4.25284C19.1246 5.46695 18.8386 6.8561 18.1909 8.26199C16.8942 11.0764 14.0818 14.1061 10.2738 16.26C10.1019 16.3573 9.89107 16.3573 9.7191 16.26C5.91175 14.1066 3.08936 11.0823 1.78739 8.27021C1.13685 6.86531 0.849271 5.47616 1.05116 4.26037C1.25691 3.0214 1.96659 2.00106 3.21517 1.37667C4.80205 0.583182 6.36228 1.10138 7.59253 2.04366C8.59296 2.8099 9.43093 3.89156 9.99628 4.92726C10.5615 3.89166 11.3995 2.81 12.3999 2.04376Z" fill="black"/>
</svg>
